<svg height='100px' width='100px'  fill="#000000" xmlns="http://www.w3.org/2000/svg" xmlns:xlink="http://www.w3.org/1999/xlink" version="1.1" x="0px" y="0px" viewBox="0 0 95 95" style="enable-background:new 0 0 95 95;" xml:space="preserve"><g><path d="M10.3,35.1C10.3,35.1,10.3,35.1,10.3,35.1C10.3,35.1,10.3,35.1,10.3,35.1z"></path><path d="M84.7,35.1C84.7,35.1,84.7,35.1,84.7,35.1C84.7,35.1,84.7,35.1,84.7,35.1z"></path><path d="M79.7,37c-0.6,0-1,1.4-1,1.4l-0.5-1.2c-0.9-0.2-2,2-2,2l-0.6-1.9c-2.4,1-2.9,2.9-2.9,2.9l-1-1.9C69,39.8,69.5,42,69.5,42   l-1-2.1c-1.9,0.9-2.7,3.6-2.7,3.6l-0.9-1.2c-3.4,1.9-2.3,4.1-2.3,4.1l-1.1-0.9c-2,1.1-2.2,4.6-2.2,4.6L58,49.3l-1.1,1.9h-1   c2.4-2.1,2.9-6.2,2.9-6.2l-2-0.3c0.9-0.6,2.6-5.9,2.6-5.9L56.7,39c1.2-0.7,1.7-5.6,1.7-5.6l-2.7,0.2c1.2-0.8,1.3-4.8,1.3-4.8   l-2.8,0.6c0,0,0,0,0.4-1.1c0.4-1.1-0.3-4.2-0.3-4.2l-2.5,1.9l1.1-5.2l-2.4,0.5c0,0,0,0,0.6-0.6c0.6-0.6,0.2-3.5,0.2-3.5l-2.5,0.4   l0.7-1.3l-2.1-5.2l-2.1,5.2l0.7,1.3L43.6,17c0,0-0.5,2.9,0.2,3.5c0.6,0.6,0.6,0.6,0.6,0.6l-2.4-0.5l1.1,5.2l-2.5-1.9   c0,0-0.6,3.1-0.3,4.2c0.4,1.1,0.4,1.1,0.4,1.1L38,28.8c0,0,0.1,4,1.3,4.8l-2.7-0.2c0,0,0.5,4.8,1.7,5.6l-2.6-0.3   c0,0,1.7,5.3,2.6,5.9l-2,0.3c0,0,0.5,4.1,2.9,6.2h-1L37,49.3l-1.2,0.8c0,0-0.2-3.5-2.2-4.6l-1.1,0.9c0,0,1.1-2.1-2.3-4.1l-0.9,1.2   c0,0-0.8-2.7-2.7-3.6l-1,2.1c0,0,0.6-2.2-2.2-3.6l-1,1.9c0,0-0.5-1.9-2.9-2.9l-0.6,1.9c0,0-1.1-2.2-2-2l-0.5,1.2c0,0-0.4-1.4-1-1.4   c-0.6,0-4.6-1.7-4.9-1.9c0.3,0.3,3.1,3.7,3.1,3.7v0.6l1.7,1.3l-1.6-0.2l3,3l-2.2-0.1l3.5,4.1h-2.4c0,0,2.5,3.1,3.8,3.6l-1.7,0.1   c0,0,2.8,3.1,4.3,3.5l-1.5,0.6c0,0,0.7,2.5,4.7,3l-1.9,1.1c0,0,1.1,1.6,4.7,1.7l-1.9,1.2c0,0,1.4,2.4,5.2,1.9l-1.4,1.1   c0,0,2.1,1.3,2.8,1.4c0.7,0.1,0.9,0.9-0.2,0.5c0,0-1.3-1.3-2.5-1.6l-0.4,1.1c0,0-0.5-1-2.6-1.4l-0.4,1.2c0,0-0.2-0.4-2.3-1v1.3   c0,0-0.9-0.5-3.1-0.7c0,0,0.7,0.9,0.9,1.5c0,0-0.4-0.7-2.9-0.5l0.7,1c0,0-0.5-0.4-2.2-0.2v0.5h-1l-0.2,0.3l-2.8,0.6l3.9,1.1   l-0.4,0.5l1.9,0.2l-0.5,0.9l3.1,0.6l-1,1.4l3.3-0.3l-1,1.2c0,0,2.1,0.6,3.1,0l-0.4,1.2l3.5-0.8l-0.6,1.3l2.6-0.8l-0.3,0.8l3-0.7   v0.7l3.8-0.7v0.7l2.7-0.8c0,0-5.4,2.5-7.2,4.9S31.4,83,31.4,83s4.9-1.8,9.1-2.9s5.8-2.7,6-3.9c0.2-1.2,0.2-1.2,0.2-1.2v9.1h0.8h0.8   V75c0,0,0,0,0.2,1.2c0.2,1.2,1.7,2.8,6,3.9s9.1,2.9,9.1,2.9s0,0-1.9-2.4s-7.2-4.9-7.2-4.9l2.7,0.8v-0.7l3.8,0.7v-0.7l3,0.7   l-0.3-0.8l2.6,0.8l-0.6-1.3l3.5,0.8l-0.4-1.2c1,0.6,3.1,0,3.1,0l-1-1.2l3.3,0.3l-1-1.4l3.1-0.6l-0.5-0.9l1.9-0.2l-0.4-0.5l3.9-1.1   l-2.8-0.6l-0.2-0.3h-1v-0.5c-1.7-0.1-2.2,0.2-2.2,0.2l0.7-1c-2.4-0.2-2.9,0.5-2.9,0.5c0.1-0.6,0.9-1.5,0.9-1.5   c-2.2,0.2-3.1,0.7-3.1,0.7v-1.3c-2.1,0.6-2.3,1-2.3,1L68,65.2c-2.1,0.4-2.6,1.4-2.6,1.4l-0.4-1.1c-1.3,0.3-2.5,1.6-2.5,1.6   c-1.1,0.4-1-0.4-0.2-0.5c0.7-0.1,2.8-1.4,2.8-1.4l-1.4-1.1c3.8,0.6,5.2-1.9,5.2-1.9l-1.9-1.2c3.5-0.1,4.7-1.7,4.7-1.7l-1.9-1.1   c4-0.5,4.7-3,4.7-3l-1.5-0.6c1.5-0.4,4.3-3.5,4.3-3.5l-1.7-0.1c1.2-0.5,3.8-3.6,3.8-3.6h-2.4l3.5-4.1l-2.2,0.1l3-3l-1.6,0.2   l1.7-1.3v-0.6c0,0,2.7-3.3,3.1-3.7C84.3,35.4,80.3,37,79.7,37z"></path></g></svg>