<?xml version="1.0" encoding="utf-8"?>
<!-- Generator: Adobe Illustrator 23.1.1, SVG Export Plug-In . SVG Version: 6.00 Build 0)  -->
<svg version="1.1" id="Layer_1" xmlns="http://www.w3.org/2000/svg" xmlns:xlink="http://www.w3.org/1999/xlink" x="0px" y="0px"
	 viewBox="0 0 172 34" style="enable-background:new 0 0 172 34;" xml:space="preserve">
<style type="text/css">
	.st0{fill:none;stroke:#000000;stroke-width:0.6056;stroke-miterlimit:10;}
	.st1{fill:none;stroke:#000000;stroke-width:13.8455;stroke-miterlimit:10;}
	.st2{fill:none;stroke:#000000;stroke-width:13.7944;stroke-miterlimit:10;}
</style>
<g>
	<path d="M6.38,26.81H5.95c-0.16,0-0.24-0.09-0.24-0.27V7.46c0-0.18,0.08-0.27,0.24-0.27h9.31c0.18,0,0.27,0.08,0.27,0.24V7.8
		c0,0.16-0.09,0.24-0.27,0.24H6.9c-0.18,0-0.27,0.08-0.27,0.24v8.12c0,0.16,0.09,0.24,0.27,0.24h7.54c0.18,0,0.27,0.08,0.27,0.24
		v0.37c0,0.16-0.09,0.24-0.27,0.24H6.9c-0.18,0-0.27,0.08-0.27,0.24v8.79C6.62,26.72,6.54,26.81,6.38,26.81z"/>
	<path d="M59.06,7.19h0.43c0.16,0,0.24,0.08,0.24,0.24v15.23c0,1.26-0.37,2.27-1.11,3.02c-0.74,0.75-1.74,1.13-2.98,1.13h-3.42
		c-1.24,0-2.23-0.38-2.98-1.13c-0.74-0.75-1.11-1.76-1.11-3.02V7.46c0-0.18,0.08-0.27,0.24-0.27h0.43c0.16,0,0.24,0.09,0.24,0.27
		v15.17c0,1.04,0.27,1.85,0.82,2.44c0.55,0.59,1.33,0.89,2.35,0.89h3.42c1.02,0,1.8-0.29,2.35-0.89c0.55-0.59,0.82-1.4,0.82-2.44
		V7.46C58.82,7.28,58.9,7.19,59.06,7.19z"/>
	<path d="M71.55,26.81h-0.43c-0.16,0-0.24-0.09-0.24-0.27V7.46c0-0.18,0.08-0.27,0.24-0.27h6.87c1.24,0,2.23,0.38,2.98,1.13
		c0.74,0.75,1.11,1.76,1.11,3.02v3.05c0,1.14-0.31,2.07-0.92,2.79c-0.61,0.72-1.43,1.15-2.47,1.3v0.12l3.75,7.94
		c0.1,0.18,0.06,0.27-0.12,0.27h-0.55c-0.16,0-0.3-0.09-0.4-0.27l-3.72-8h-5.59c-0.18,0-0.27,0.08-0.27,0.24v7.75
		C71.79,26.72,71.71,26.81,71.55,26.81z M72.07,17.69h5.92c1.02,0,1.8-0.29,2.35-0.89c0.55-0.59,0.82-1.4,0.82-2.44v-2.99
		c0-1.04-0.27-1.85-0.82-2.44C79.79,8.34,79,8.04,77.99,8.04h-5.92c-0.18,0-0.27,0.08-0.27,0.24v9.16
		C71.79,17.61,71.88,17.69,72.07,17.69z"/>
	<path d="M102.38,26.81H93.1c-0.16,0-0.24-0.09-0.24-0.27V7.46c0-0.18,0.08-0.27,0.24-0.27h9.28c0.18,0,0.27,0.08,0.27,0.24V7.8
		c0,0.16-0.09,0.24-0.27,0.24h-8.33c-0.18,0-0.27,0.08-0.27,0.24v7.85c0,0.16,0.09,0.24,0.27,0.24h7.54c0.18,0,0.27,0.08,0.27,0.24
		v0.37c0,0.16-0.09,0.24-0.27,0.24h-7.54c-0.18,0-0.27,0.08-0.27,0.24v8.24c0,0.16,0.09,0.24,0.27,0.24h8.33
		c0.18,0,0.27,0.08,0.27,0.24v0.37C102.65,26.73,102.56,26.81,102.38,26.81z"/>
	<path d="M118.22,26.81h-0.43c-0.16,0-0.24-0.09-0.24-0.27v-7.2l-6.01-11.87c-0.1-0.18-0.05-0.27,0.15-0.27h0.55
		c0.14,0,0.25,0.09,0.34,0.27l5.37,10.68h0.12l5.37-10.68c0.08-0.18,0.19-0.27,0.34-0.27h0.55c0.2,0,0.25,0.09,0.15,0.27
		l-6.01,11.87v7.2C118.46,26.72,118.38,26.81,118.22,26.81z"/>
	<path d="M143.49,26.81h-9.28c-0.16,0-0.24-0.09-0.24-0.27V7.46c0-0.18,0.08-0.27,0.24-0.27h9.28c0.18,0,0.27,0.08,0.27,0.24V7.8
		c0,0.16-0.09,0.24-0.27,0.24h-8.33c-0.18,0-0.27,0.08-0.27,0.24v7.85c0,0.16,0.09,0.24,0.27,0.24h7.54c0.18,0,0.27,0.08,0.27,0.24
		v0.37c0,0.16-0.09,0.24-0.27,0.24h-7.54c-0.18,0-0.27,0.08-0.27,0.24v8.24c0,0.16,0.09,0.24,0.27,0.24h8.33
		c0.18,0,0.27,0.08,0.27,0.24v0.37C143.77,26.73,143.68,26.81,143.49,26.81z"/>
	<path d="M154.45,22.66v-1.22c0-0.18,0.08-0.27,0.24-0.27h0.43c0.16,0,0.24,0.09,0.24,0.27v1.19c0,1.04,0.27,1.85,0.82,2.44
		c0.55,0.59,1.33,0.89,2.35,0.89h3.66c1.02,0,1.8-0.29,2.35-0.89c0.55-0.59,0.82-1.4,0.82-2.44v-1.53c0-0.96-0.38-1.71-1.13-2.27
		c-0.75-0.56-1.66-0.97-2.73-1.22c-1.07-0.25-2.14-0.51-3.21-0.76c-1.07-0.25-1.98-0.68-2.73-1.27c-0.75-0.59-1.13-1.39-1.13-2.41
		v-1.83c0-1.26,0.37-2.27,1.11-3.02c0.74-0.75,1.73-1.13,2.98-1.13h3.66c1.24,0,2.23,0.38,2.98,1.13c0.74,0.75,1.11,1.76,1.11,3.02
		v0.92c0,0.18-0.08,0.27-0.24,0.27h-0.43c-0.16,0-0.24-0.09-0.24-0.27v-0.89c0-1.04-0.27-1.85-0.82-2.44
		c-0.55-0.59-1.33-0.89-2.35-0.89h-3.66c-1.02,0-1.8,0.3-2.35,0.89c-0.55,0.59-0.82,1.4-0.82,2.44v1.77c0,1.51,1.28,2.54,3.85,3.11
		c1.08,0.22,2.15,0.47,3.22,0.75c1.07,0.27,1.98,0.74,2.73,1.4c0.75,0.66,1.13,1.54,1.13,2.64v1.62c0,1.26-0.37,2.27-1.11,3.02
		c-0.74,0.75-1.74,1.13-2.98,1.13h-3.66c-1.24,0-2.23-0.38-2.98-1.13C154.82,24.93,154.45,23.92,154.45,22.66z"/>
	<path class="st0" d="M34.81,7.52l6.31,6.31c0.28,0.28,0.38,0.7,0.26,1.08l-2.72,8.45c-0.09,0.28-0.31,0.5-0.59,0.59l-8.45,2.72
		c-0.38,0.12-0.79,0.02-1.07-0.26l-6.35-6.35c-0.22-0.22-0.3-0.54-0.2-0.84l2.76-8.75c0.09-0.3,0.33-0.53,0.63-0.62l8.5-2.56
		C34.21,7.19,34.57,7.28,34.81,7.52z"/>
	<polyline class="st0" points="34.37,7.28 31.33,16.71 21.85,19.7 	"/>
	<line class="st0" x1="31.33" y1="16.71" x2="38.38" y2="23.77"/>
</g>
<g>
	
		<text transform="matrix(0.7 0 0 0.7 -1814.0859 1749.2656)" style="font-family:'Rajdhani-Light'; font-size:1011.7999px; letter-spacing:191.43;">foureyes</text>
	<g>
		<g>
			<path class="st1" d="M-149.68,603l136.86-136.86l24.45-24.45l215.77,69.6l-5.64,10.08L77.48,665.63
				c-6.45,6.45-15.97,8.75-24.65,5.95l-193.11-62.18L-149.68,603z"/>
			<polyline class="st1" points="227.39,511.28 11.63,441.68 11.63,441.68 			"/>
		</g>
		<g>
			<path class="st1" d="M-304.23,758.72l144.27-144.27c6.45-6.45,15.97-8.75,24.65-5.95l193.11,62.18
				c6.43,2.1,11.47,7.13,13.57,13.57l62.17,193.22c2.73,8.6,0.49,17.97-5.94,24.41l-145.21,145.21c-5,5-12.38,6.81-19.13,4.68
				l-200-63.04c-6.78-2.17-12.1-7.48-14.2-14.34l-58.63-194.44C-311.83,772.42-309.78,764.27-304.23,758.72z"/>
			<polyline class="st1" points="-309.87,768.8 -94.1,838.4 -25.76,1055.22 			"/>
			<line class="st1" x1="-94.1" y1="838.4" x2="67.21" y2="677.09"/>
		</g>
		<g>
			<path class="st1" d="M343.07,955.93l-193.11-62.18c-8.68-2.8-18.2-0.5-24.65,5.95l-144.27,144.27l-5.64,10.08l215.77,69.6"/>
			<polyline class="st1" points="343.07,955.93 352.47,962.35 191.16,1123.66 178.61,1119.61 			"/>
		</g>
		<g>
			<path class="st2" d="M77.89,664.09l143.74-143.74c6.43-6.43,15.91-8.72,24.56-5.93l192.4,61.95c6.41,2.09,11.43,7.11,13.52,13.52
				l61.94,192.5c2.72,8.57,0.49,17.91-5.92,24.32L363.44,951.38c-4.99,4.99-12.33,6.78-19.06,4.66l-199.26-62.81
				c-6.76-2.16-12.05-7.46-14.14-14.28L72.57,685.23C70.32,677.74,72.36,669.62,77.89,664.09z"/>
			<polyline class="st2" points="72.27,674.13 287.24,743.47 355.33,959.49 			"/>
			<line class="st2" x1="287.24" y1="743.47" x2="447.95" y2="582.75"/>
		</g>
	</g>
</g>
</svg>
