<?xml version="1.0" encoding="utf-8"?>
<!-- Generator: Adobe Illustrator 21.0.0, SVG Export Plug-In . SVG Version: 6.00 Build 0)  -->
<svg version="1.0" id="Layer_1" xmlns="http://www.w3.org/2000/svg" xmlns:xlink="http://www.w3.org/1999/xlink" x="0px" y="0px"
	 viewBox="0 0 695 129" style="enable-background:new 0 0 695 129;" xml:space="preserve">
<style type="text/css">
	.st0{fill:#FFFFFF;}
	.st1{opacity:0.5;fill:#FFFFFF;}
</style>
<g>
	<path class="st0" d="M65.8,125c33.4,0,60.5-27.1,60.5-60.5C126.3,31.1,99.2,4,65.8,4C32.4,4,5.3,31.1,5.3,64.5
		C5.3,97.9,32.4,125,65.8,125z M65.8,11.6c29.2,0,52.9,23.7,52.9,52.9c0,29.2-23.7,52.9-52.9,52.9c-29.2,0-52.9-23.7-52.9-52.9
		C12.9,35.3,36.6,11.6,65.8,11.6z"/>
	<path class="st0" d="M37.9,57.7c0,0.1,0,0.1,0,0.2h0V82h9.7V57.9h0c0-0.1,0-0.1,0-0.2c0-0.3,0-0.6,0-0.9h0c0,0,0,0,0-0.1
		c0.2-2.1,1.2-4,2.6-5.4c1-1,2.3-1.8,3.8-2.3c0.7-0.2,1.5-0.3,2.2-0.3c0.7,0,1.4,0.1,2.1,0.3c1.5,0.4,2.8,1.2,3.9,2.3
		c1.4,1.4,2.4,3.3,2.6,5.4c0,0,0,0.1,0,0.1h0c0,0.3,0,0.6,0,0.9c0,0.1,0,0.1,0,0.2h0V82h9.5V68.6h9.8v5.1c0,0,0,0.1,0,0.1
		c0,0,0,0.1,0,0.1v0.8h0c0.5,9,7.3,16.3,16.1,17.5v-9.7c-1.5-0.4-2.8-1.2-3.9-2.3c-1.7-1.7-2.7-3.9-2.7-6.4c0-0.1,0-0.1,0-0.2h0
		V49.5h-9.5v9.7h-9.8v-1.3c0,0,0-0.1,0-0.1c0,0,0-0.1,0-0.1v-0.8h0c-0.2-3.5-1.3-6.7-3.1-9.4c-3.1-5-8.7-8.3-15-8.3
		c-5.4,0-10.3,2.4-13.5,6.3c-2.9-3.2-6.9-5.5-11.4-6.1V49c1.5,0.4,2.9,1.2,3.9,2.3C36.9,52.9,37.9,55.2,37.9,57.7z"/>
</g>
<path class="st1" d="M160.4,39.5H197v8.3h-13.6v40h-9.5v-40h-13.5V39.5z"/>
<path class="st1" d="M204.9,39.5h9.4v19.1h18.2V39.5h9.5v48.3h-9.5V66.9h-18.2v20.9h-9.4V39.5z"/>
<path class="st1" d="M250.2,39.5h32.4v8.4h-22.9v10.6h14v7.2h-14v13.8h22.9v8.3h-32.4V39.5z"/>
<path class="st0" d="M291.1,39.5h10L321,71.9V39.5h9.4v48.3H321l-20.4-33.7v33.7h-9.5V39.5z"/>
<path class="st0" d="M338.5,39.5h32.4v8.4H348v10.6h14v7.2h-14v13.8h22.9v8.3h-32.4V39.5z"/>
<path class="st0" d="M375.5,39.5h9.1l6.6,27.7l6.6-27.7h10.8l6.7,27.9l6.5-27.9h9.1l-11.4,48.3h-7.5l-8.7-36.9l-8.9,36.9H387
	L375.5,39.5z"/>
<path class="st0" d="M442.1,74.3c1.6,2.5,3.2,4.2,4.7,5.1c1.5,1,3.4,1.5,5.5,1.5c2.5,0,4.5-0.6,5.9-1.9c1.4-1.3,2.1-2.7,2.1-4.4
	c0-1.5-0.6-2.8-1.7-3.9c-1.1-1.1-3.7-2.2-7.6-3.3c-5.4-1.4-9.2-3.1-11.5-5.2c-2.9-2.6-4.3-5.7-4.3-9.5c0-4.1,1.4-7.4,4.3-10.1
	c2.9-2.7,6.8-4,11.9-4c2.9,0,5.4,0.5,7.7,1.4c2.2,1,4.1,2.2,5.7,3.7c1,1,2,2.3,3,4.1l-8,3.3c-1.3-1.9-2.7-3.3-4.1-4.2
	c-1.4-0.9-3-1.3-4.7-1.3c-2.1,0-3.8,0.6-5.1,1.8c-1.3,1.2-1.9,2.6-1.9,4.3c0,1.3,0.5,2.5,1.6,3.5c1,1,3.6,2,7.8,3
	c4.1,1,7.3,2.2,9.4,3.6c2.1,1.4,3.7,3.1,4.8,5.3c1.1,2.2,1.6,4.4,1.6,6.8c0,2.4-0.7,4.9-2.1,7.4c-1.4,2.5-3.4,4.4-6.1,5.7
	c-2.7,1.3-5.8,2-9.3,2c-3.3,0-6.2-0.6-8.6-1.7c-2.4-1.1-4.5-2.6-6.2-4.5c-1.1-1.2-2.2-2.9-3.3-5L442.1,74.3z"/>
<path class="st1" d="M476.7,39.5h9.4v19.1h18.2V39.5h9.5v48.3h-9.5V66.9h-18.2v20.9h-9.4V39.5z"/>
<path class="st1" d="M541.5,38.6c4.5,0,8.2,0.8,11,2.3c3.6,2,6.4,4.8,8.3,8.5c1.9,3.7,2.9,8.6,2.9,14.6c0,8.2-1.9,14.3-5.8,18.5
	c-3.9,4.2-8.9,6.3-15.3,6.3c-6.4,0-11.6-2.1-15.5-6.4c-3.9-4.3-5.9-10.5-5.9-18.7c0-4.9,0.8-9.3,2.4-13.3c0.9-2.2,2.2-4.2,4-6.1
	c1.8-1.9,3.9-3.3,6.2-4.3C536.1,39.1,538.7,38.6,541.5,38.6z M542.4,46.8c-3.3,0-6,1.3-8.1,3.9c-2.1,2.6-3.2,6.9-3.2,12.9
	c0,5.9,1.1,10.2,3.2,12.8c2.2,2.6,4.9,3.9,8.3,3.9c3.2,0,5.9-1.3,8-3.9c2.1-2.6,3.2-6.8,3.2-12.7c0-6.6-1.3-11.2-3.9-13.9
	C548,47.9,545.5,46.8,542.4,46.8z"/>
<path class="st1" d="M570.5,39.5h9.5V69c0,3.7,0.9,6.4,2.6,8.3c1.7,1.8,4,2.7,6.9,2.7c1.9,0,3.5-0.4,5-1.1c1.5-0.7,2.6-1.9,3.5-3.6
	c0.9-1.7,1.3-3.8,1.3-6.3V39.5h9.6v30.9c0,5.9-1.6,10.4-4.8,13.6c-3.2,3.2-7.9,4.8-14.1,4.8c-3.6,0-6.9-0.6-10-1.7
	c-1.6-0.6-3-1.4-4.1-2.4c-1.5-1.4-2.8-3.2-3.8-5.3c-1-2.2-1.5-5.1-1.5-8.7V39.5z"/>
<path class="st1" d="M623.9,74.3c1.6,2.5,3.2,4.2,4.7,5.1c1.5,1,3.4,1.5,5.5,1.5c2.5,0,4.5-0.6,5.9-1.9c1.4-1.3,2.1-2.7,2.1-4.4
	c0-1.5-0.6-2.8-1.7-3.9c-1.1-1.1-3.7-2.2-7.6-3.3c-5.4-1.4-9.2-3.1-11.5-5.2c-2.9-2.6-4.3-5.7-4.3-9.5c0-4.1,1.4-7.4,4.3-10.1
	c2.9-2.7,6.8-4,11.9-4c2.9,0,5.4,0.5,7.7,1.4c2.2,1,4.1,2.2,5.7,3.7c1,1,2,2.3,3,4.1l-8,3.3c-1.3-1.9-2.7-3.3-4.1-4.2
	c-1.4-0.9-3-1.3-4.7-1.3c-2.1,0-3.8,0.6-5.1,1.8c-1.3,1.2-1.9,2.6-1.9,4.3c0,1.3,0.5,2.5,1.6,3.5c1,1,3.6,2,7.8,3
	c4.1,1,7.3,2.2,9.4,3.6c2.1,1.4,3.7,3.1,4.8,5.3c1.1,2.2,1.6,4.4,1.6,6.8c0,2.4-0.7,4.9-2.1,7.4c-1.4,2.5-3.4,4.4-6.1,5.7
	c-2.7,1.3-5.8,2-9.3,2c-3.3,0-6.2-0.6-8.6-1.7c-2.4-1.1-4.5-2.6-6.2-4.5c-1.1-1.2-2.2-2.9-3.3-5L623.9,74.3z"/>
<path class="st1" d="M658.5,39.5h32.4v8.4H668v10.6h14v7.2h-14v13.8h22.9v8.3h-32.4V39.5z"/>
</svg>
